<svg width="206" height="41" viewBox="0 0 206 41" fill="none" xmlns="http://www.w3.org/2000/svg">
<path d="M30.6016 32H26.7539V15.0469H16.0312V32H12.2031V11.1992H16.0312V14.8711C16.0573 14.3633 16.1745 13.888 16.3828 13.4453C16.5911 12.9896 16.8646 12.599 17.2031 12.2734C17.5547 11.9349 17.9583 11.6745 18.4141 11.4922C18.8698 11.2969 19.3581 11.1992 19.8789 11.1992H26.7539C27.2878 11.1992 27.7891 11.3034 28.2578 11.5117C28.7266 11.707 29.1302 11.9805 29.4688 12.332C29.8203 12.6706 30.0938 13.0742 30.2891 13.543C30.4974 14.0117 30.6016 14.513 30.6016 15.0469V32ZM42.9258 32L34.6055 11.1992H38.6094L44.918 27.3906L51.2461 11.1992H55.25L46.9297 32H42.9258ZM76.8711 23.5625H63.1016V28.1523H76.8711V32H63.1016C62.5807 32 62.0859 31.9023 61.6172 31.707C61.1484 31.4987 60.7383 31.2253 60.3867 30.8867C60.0482 30.5352 59.7747 30.125 59.5664 29.6562C59.3711 29.1875 59.2734 28.6862 59.2734 28.1523V15.0469C59.2734 14.513 59.3711 14.0117 59.5664 13.543C59.7747 13.0742 60.0482 12.6706 60.3867 12.332C60.7383 11.9805 61.1484 11.707 61.6172 11.5117C62.0859 11.3034 62.5807 11.1992 63.1016 11.1992H73.0234C73.5573 11.1992 74.0586 11.3034 74.5273 11.5117C74.9961 11.707 75.3997 11.9805 75.7383 12.332C76.0898 12.6706 76.3633 13.0742 76.5586 13.543C76.7669 14.0117 76.8711 14.513 76.8711 15.0469V23.5625ZM63.1016 15.0469V19.7148H73.0234V15.0469H63.1016Z" fill="black" fill-opacity="0.75"/>
<path fill-rule="evenodd" clip-rule="evenodd" d="M101.081 7.87501C101.509 7.93103 101.91 7.63098 101.977 7.20482L102.7 2.58623C102.785 2.04059 102.411 1.54011 101.863 1.46838L98.3482 1.00794C97.8431 0.941787 97.3698 1.2961 97.291 1.79933C97.2122 2.30255 97.5578 2.76413 98.0628 2.83028C98.7878 2.92525 99.0641 3.82945 98.5159 4.3134L94.7823 7.60994C94.3133 8.02405 93.592 7.92957 93.269 7.41171L91.9384 5.27899C91.6286 4.78239 90.9477 4.67123 90.4742 5.03997L82.959 10.8937C82.8604 10.9705 82.7789 11.0623 82.7161 11.1634C82.6351 11.2937 82.5045 11.3971 82.3511 11.3971C82.1573 11.3971 82.0002 11.5542 82.0002 11.748V19.846V22.8456C82.0002 22.8458 82.0004 22.846 82.0006 22.846H90.5173C91.0696 22.846 91.5173 23.2937 91.5173 23.846V28.1478C91.5173 28.7001 91.0696 29.1478 90.5173 29.1478H83C82.4477 29.1478 82 29.5956 82 30.1478V31.1478C82 31.7001 82.4477 32.1478 83 32.1478H94.5169C94.517 32.1478 94.5172 32.1477 94.5172 32.1475V32.1473C94.5172 32.1473 94.5172 32.1472 94.5172 32.1472C94.5173 32.1472 94.5173 32.1472 94.5173 32.1471V22.846C94.5173 22.846 94.5174 22.846 94.5174 22.846C94.5174 22.846 94.5174 22.8459 94.5174 22.8459V20.846C94.5174 20.2937 94.0697 19.846 93.5174 19.846H86.0002C85.448 19.846 85.0002 19.3982 85.0002 18.846V12.6383C85.0002 12.3515 85.1234 12.0785 85.3384 11.8887L90.0594 7.72039C90.5284 7.30629 91.2496 7.40077 91.5727 7.91863L92.8652 9.99031C93.1882 10.5082 93.9095 10.6026 94.3785 10.1885L98.9223 6.17669C99.563 5.61102 100.56 6.15756 100.428 7.00193C100.361 7.42809 100.654 7.81898 101.081 7.87501Z" fill="url(#paint0_linear_957_1139)"/>
<path d="M101.977 7.20482L102.965 7.35952V7.35952L101.977 7.20482ZM101.081 7.87501L100.952 8.86653H100.952L101.081 7.87501ZM102.7 2.58623L103.688 2.74093V2.74093L102.7 2.58623ZM101.863 1.46838L101.733 2.45991L101.733 2.45991L101.863 1.46838ZM98.3482 1.00794L98.478 0.0164152H98.478L98.3482 1.00794ZM97.291 1.79933L98.279 1.95403L98.279 1.95403L97.291 1.79933ZM94.7823 7.60994L94.1204 6.86032V6.86032L94.7823 7.60994ZM93.269 7.41171L92.4205 7.94102V7.94102L93.269 7.41171ZM91.9384 5.27899L91.09 5.8083V5.8083L91.9384 5.27899ZM90.4742 5.03997L89.8598 4.25106L90.4742 5.03997ZM82.959 10.8937L83.5735 11.6826H83.5735L82.959 10.8937ZM90.0594 7.72039L90.7213 8.47002L90.0594 7.72039ZM91.5727 7.91863L92.4211 7.38932V7.38932L91.5727 7.91863ZM92.8652 9.99031L93.7136 9.461L93.7136 9.461L92.8652 9.99031ZM94.3785 10.1885L95.0403 10.9382V10.9382L94.3785 10.1885ZM98.9223 6.17669L98.2605 5.42706L98.9223 6.17669ZM85.3384 11.8887L86.0002 12.6383L85.3384 11.8887ZM82.7161 11.1634L83.5654 11.6913L82.7161 11.1634ZM100.989 7.05011C100.998 6.99165 101.03 6.94667 101.065 6.9202C101.101 6.89372 101.153 6.87579 101.211 6.88348L100.952 8.86653C101.917 8.99302 102.814 8.32167 102.965 7.35952L100.989 7.05011ZM101.712 2.43152L100.989 7.05011L102.965 7.35952L103.688 2.74093L101.712 2.43152ZM101.733 2.45991C101.735 2.46015 101.732 2.45993 101.728 2.45729C101.724 2.45501 101.721 2.45208 101.718 2.44887C101.716 2.44567 101.714 2.4418 101.713 2.43745C101.712 2.43243 101.712 2.42972 101.712 2.43152L103.688 2.74093C103.86 1.63996 103.098 0.621592 101.993 0.476851L101.733 2.45991ZM98.2183 1.99947L101.733 2.45991L101.993 0.476851L98.478 0.0164152L98.2183 1.99947ZM98.279 1.95403C98.2759 1.97396 98.2651 1.98611 98.259 1.99065C98.253 1.99519 98.2383 2.00209 98.2183 1.99947L98.478 0.0164152C97.4351 -0.120206 96.4658 0.605411 96.3031 1.64462L98.279 1.95403ZM98.1927 1.83875C98.2144 1.8416 98.2409 1.8559 98.2585 1.87942C98.2761 1.90294 98.2824 1.93236 98.279 1.95403L96.3031 1.64462C96.1373 2.70318 96.8705 3.68265 97.9329 3.82181L98.1927 1.83875ZM95.4441 8.35957L99.1778 5.06303L97.8541 3.56378L94.1204 6.86032L95.4441 8.35957ZM92.4205 7.94102C93.0866 9.00869 94.5345 9.16269 95.4441 8.35957L94.1204 6.86032C94.1167 6.86361 94.1139 6.86532 94.1123 6.86622C94.1106 6.86717 94.1092 6.86773 94.1079 6.8681C94.1052 6.86892 94.1025 6.86901 94.1008 6.86878C94.099 6.86856 94.101 6.86842 94.1056 6.87131C94.108 6.87281 94.1106 6.87483 94.1131 6.87727C94.1156 6.87978 94.117 6.88178 94.1174 6.8824L92.4205 7.94102ZM91.09 5.8083L92.4205 7.94102L94.1174 6.8824L92.7868 4.74968L91.09 5.8083ZM91.0887 5.82889C91.0923 5.8261 91.0949 5.82464 91.0966 5.82386C91.0983 5.82304 91.0996 5.82258 91.1008 5.8223C91.1033 5.82167 91.1054 5.82173 91.1066 5.82191C91.1077 5.82209 91.1055 5.82199 91.1012 5.81915C91.0989 5.81769 91.0965 5.81577 91.0942 5.81345C91.0919 5.81108 91.0905 5.80912 91.09 5.8083L92.7868 4.74968C92.1485 3.72648 90.7794 3.53472 89.8598 4.25106L91.0887 5.82889ZM83.5735 11.6826L91.0887 5.82889L89.8598 4.25106L82.3445 10.1048L83.5735 11.6826ZM83.5654 11.6913C83.5668 11.689 83.5691 11.686 83.5735 11.6826L82.3445 10.1048C82.1516 10.255 81.9911 10.4355 81.8667 10.6355L83.5654 11.6913ZM83.0002 19.846V11.748H81.0002V19.846H83.0002ZM83.0002 22.8456V19.846H81.0002V22.8456H83.0002ZM90.5173 21.846H82.0006V23.846H90.5173V21.846ZM92.5173 28.1478V23.846H90.5173V28.1478H92.5173ZM90.5173 28.1478H83V30.1478H90.5173V28.1478ZM81 30.1478V31.1478H83V30.1478H81ZM83 33.1478H94.5169V31.1478H83V33.1478ZM95.5172 32.1475V32.1473H93.5172V32.1475H95.5172ZM93.5173 22.846V32.1471H95.5173V22.846H93.5173ZM93.5174 20.846V22.8459H95.5174V20.846H93.5174ZM86.0002 20.846H93.5174V18.846H86.0002V20.846ZM84.0002 12.6383V18.846H86.0002V12.6383H84.0002ZM89.3975 6.97077L84.6765 11.139L86.0002 12.6383L90.7213 8.47002L89.3975 6.97077ZM92.4211 7.38932C91.755 6.32165 90.3072 6.16764 89.3975 6.97077L90.7213 8.47002C90.725 8.46673 90.7277 8.46502 90.7293 8.46411C90.731 8.46317 90.7325 8.46261 90.7337 8.46224C90.7365 8.46142 90.7391 8.46132 90.7409 8.46155C90.7426 8.46178 90.7407 8.46192 90.736 8.45902C90.7336 8.45753 90.731 8.45551 90.7286 8.45307C90.7261 8.45055 90.7247 8.44855 90.7243 8.44794L92.4211 7.38932ZM93.7136 9.461L92.4211 7.38932L90.7243 8.44794L92.0167 10.5196L93.7136 9.461ZM93.7166 9.43892C93.7129 9.44221 93.7102 9.44392 93.7085 9.44482C93.7068 9.44577 93.7054 9.44633 93.7042 9.4467C93.7014 9.44752 93.6987 9.44761 93.697 9.44738C93.6952 9.44715 93.6972 9.44701 93.7018 9.44991C93.7042 9.45141 93.7069 9.45343 93.7093 9.45587C93.7118 9.45838 93.7132 9.46038 93.7136 9.461L92.0167 10.5196C92.6828 11.5873 94.1307 11.7413 95.0403 10.9382L93.7166 9.43892ZM98.2605 5.42706L93.7166 9.43892L95.0403 10.9382L99.5842 6.92632L98.2605 5.42706ZM101.211 6.88348C101.341 6.90046 101.436 7.02746 101.416 7.15663L99.4399 6.84723C99.2862 7.82872 99.9665 8.7375 100.952 8.86653L101.211 6.88348ZM99.5842 6.92632C99.5853 6.92536 99.5799 6.9302 99.5676 6.93541C99.5556 6.9405 99.5423 6.94373 99.5295 6.9448C99.505 6.94684 99.4905 6.94087 99.4843 6.93745C99.478 6.93403 99.4652 6.92507 99.4538 6.90332C99.4477 6.89187 99.4433 6.87895 99.4412 6.86611C99.439 6.85296 99.4401 6.84579 99.4399 6.84722L101.416 7.15663C101.693 5.38696 99.6032 4.24151 98.2605 5.42706L99.5842 6.92632ZM86.0002 12.6383H86.0002L84.6765 11.139C84.2465 11.5187 84.0002 12.0647 84.0002 12.6383H86.0002ZM86.0002 18.846H84.0002C84.0002 19.9505 84.8957 20.846 86.0002 20.846V18.846ZM95.5174 20.846C95.5174 19.7414 94.622 18.846 93.5174 18.846V20.846H93.5174H95.5174ZM94.5174 23.846C95.0697 23.846 95.5174 23.3982 95.5174 22.8459H93.5174C93.5174 22.2937 93.9651 21.846 94.5174 21.846V23.846ZM95.5173 22.846C95.5173 23.3983 95.0696 23.846 94.5174 23.846V21.846C93.9651 21.846 93.5173 22.2937 93.5173 22.846H95.5173ZM95.5172 32.1473C95.5172 32.6996 95.0695 33.1472 94.5172 33.1472V31.1472C93.9649 31.1472 93.5172 31.595 93.5172 32.1473H95.5172ZM94.5169 33.1478C95.0689 33.1478 95.5172 32.7004 95.5172 32.1475H93.5172C93.5172 31.595 93.9651 31.1478 94.5169 31.1478V33.1478ZM81 31.1478C81 32.2524 81.8954 33.1478 83 33.1478V31.1478H81ZM83 28.1478C81.8954 28.1478 81 29.0433 81 30.1478H83H83V28.1478ZM90.5173 28.1478V30.1478C91.6219 30.1478 92.5173 29.2524 92.5173 28.1478H90.5173ZM82.3511 10.3971C81.605 10.3971 81.0002 11.0019 81.0002 11.748H83.0002C83.0002 12.1065 82.7096 12.3971 82.3511 12.3971V10.3971ZM97.9329 3.82181C97.9134 3.81926 97.8815 3.80746 97.8534 3.78253C97.8288 3.76076 97.8163 3.73742 97.8104 3.71817C97.8045 3.69892 97.8019 3.67257 97.8101 3.64079C97.8195 3.60439 97.8393 3.5768 97.8541 3.56378L99.1778 5.06303C100.369 4.01093 99.7688 2.04522 98.1927 1.83875L97.9329 3.82181ZM90.5173 23.846H92.5173C92.5173 22.7414 91.6219 21.846 90.5173 21.846V23.846ZM94.5172 33.1472C95.0639 33.1472 95.5173 32.7052 95.5173 32.1471H93.5173C93.5173 31.5892 93.9707 31.1472 94.5172 31.1472V33.1472ZM81.8667 10.6355C81.8879 10.6015 81.9273 10.5506 81.9983 10.5023C82.0734 10.4512 82.1949 10.3971 82.3511 10.3971V12.3971C82.9762 12.3971 83.3802 11.9892 83.5654 11.6913L81.8667 10.6355ZM81.0002 22.8456C81.0002 23.3992 81.4492 23.846 82.0006 23.846V21.846C82.5515 21.846 83.0002 22.2924 83.0002 22.8456H81.0002Z" fill="url(#paint1_linear_957_1139)"/>
<path d="M119.688 15.0469V32H115.84V15.0469H107.031V32H103.203V11.1992H107.031V14.8711C107.057 14.3633 107.174 13.888 107.383 13.4453C107.591 12.9896 107.865 12.599 108.203 12.2734C108.555 11.9349 108.958 11.6745 109.414 11.4922C109.87 11.2969 110.358 11.1992 110.879 11.1992H115.84C116.348 11.1992 116.829 11.2969 117.285 11.4922C117.741 11.6745 118.145 11.9349 118.496 12.2734C118.848 12.599 119.128 12.9896 119.336 13.4453C119.557 13.888 119.674 14.3633 119.688 14.8711C119.714 14.3633 119.824 13.888 120.02 13.4453C120.228 12.9896 120.501 12.599 120.84 12.2734C121.191 11.9349 121.595 11.6745 122.051 11.4922C122.507 11.2969 122.995 11.1992 123.516 11.1992H128.477C129.01 11.1992 129.512 11.3034 129.98 11.5117C130.449 11.707 130.853 11.9805 131.191 12.332C131.543 12.6706 131.816 13.0742 132.012 13.543C132.22 14.0117 132.324 14.513 132.324 15.0469V32H128.477V15.0469H119.688ZM156.348 23.5625H142.578V28.1523H156.348V32H142.578C142.057 32 141.562 31.9023 141.094 31.707C140.625 31.4987 140.215 31.2253 139.863 30.8867C139.525 30.5352 139.251 30.125 139.043 29.6562C138.848 29.1875 138.75 28.6862 138.75 28.1523V15.0469C138.75 14.513 138.848 14.0117 139.043 13.543C139.251 13.0742 139.525 12.6706 139.863 12.332C140.215 11.9805 140.625 11.707 141.094 11.5117C141.562 11.3034 142.057 11.1992 142.578 11.1992H152.5C153.034 11.1992 153.535 11.3034 154.004 11.5117C154.473 11.707 154.876 11.9805 155.215 12.332C155.566 12.6706 155.84 13.0742 156.035 13.543C156.243 14.0117 156.348 14.513 156.348 15.0469V23.5625ZM142.578 15.0469V19.7148H152.5V15.0469H142.578ZM181.172 32H177.324V15.0469H166.602V32H162.773V11.1992H166.602V14.8711C166.628 14.3633 166.745 13.888 166.953 13.4453C167.161 12.9896 167.435 12.599 167.773 12.2734C168.125 11.9349 168.529 11.6745 168.984 11.4922C169.44 11.2969 169.928 11.1992 170.449 11.1992H177.324C177.858 11.1992 178.359 11.3034 178.828 11.5117C179.297 11.707 179.701 11.9805 180.039 12.332C180.391 12.6706 180.664 13.0742 180.859 13.543C181.068 14.0117 181.172 14.513 181.172 15.0469V32ZM186.367 11.1992H191.445V4.79297H195.293V11.1992H202.129V15.0469H195.293V28.1523H202.129V32H195.293C194.772 32 194.277 31.9023 193.809 31.707C193.34 31.4987 192.93 31.2253 192.578 30.8867C192.227 30.5352 191.947 30.125 191.738 29.6562C191.543 29.1875 191.445 28.6862 191.445 28.1523V15.0469H186.367V11.1992Z" fill="black" fill-opacity="0.75"/>
<path fill-rule="evenodd" clip-rule="evenodd" d="M6 34.0001C6.55228 34.0001 7 33.5523 7 33.0001V11.75C7 11.1977 6.55228 10.75 6 10.75H5C4.44772 10.75 4 11.1977 4 11.75V33.0001C4 33.5523 4.44772 34.0001 5 34.0001H6Z" fill="url(#paint2_linear_957_1139)"/>
<path d="M8 11.75V33.0001H6V11.75H8ZM5 9.75H6V11.75H5V9.75ZM3 33.0001V11.75H5V33.0001H3ZM6 35.0001H5V33.0001H6V35.0001ZM5 33.0001V35.0001C3.89543 35.0001 3 34.1046 3 33.0001H5ZM5 11.75V11.75H3C3 10.6454 3.89543 9.75 5 9.75V11.75ZM8 33.0001C8 34.1046 7.10457 35.0001 6 35.0001V33.0001H8ZM6 11.75H6V9.75C7.10457 9.75 8 10.6454 8 11.75H6Z" fill="url(#paint3_linear_957_1139)"/>
<path d="M8.80608 5.02408C9.10484 5.16955 9.11366 5.42202 8.82579 5.58799C8.53792 5.75397 8.06236 5.7706 7.7636 5.62513L5.84767 4.69226C5.35112 4.45049 4.56072 4.47813 4.08226 4.75398L2.98912 5.38424C2.63194 5.59018 2.04188 5.61081 1.67119 5.43032C1.3005 5.24983 1.28955 4.93657 1.64673 4.73064L3.78235 3.49933C4.2608 3.22347 5.0512 3.19583 5.54776 3.43761L8.80608 5.02408Z" fill="url(#paint4_linear_957_1139)" stroke="url(#paint5_linear_957_1139)" stroke-width="2"/>
<defs>
<linearGradient id="paint0_linear_957_1139" x1="101" y1="2.5" x2="84.5" y2="32" gradientUnits="userSpaceOnUse">
<stop stop-color="#6775DB" stop-opacity="0.8"/>
<stop offset="0.515" stop-color="#C8B2DE" stop-opacity="0.9"/>
<stop offset="0.95" stop-color="#FFD4FF"/>
</linearGradient>
<linearGradient id="paint1_linear_957_1139" x1="92.356" y1="1" x2="92.356" y2="32.1478" gradientUnits="userSpaceOnUse">
<stop stop-color="#6775DB" stop-opacity="0.8"/>
<stop offset="0.28" stop-color="#C8B2DE" stop-opacity="0.9"/>
<stop offset="0.96" stop-color="#FFD4FF"/>
</linearGradient>
<linearGradient id="paint2_linear_957_1139" x1="4.24798" y1="11.8697" x2="13.1998" y2="14.9753" gradientUnits="userSpaceOnUse">
<stop stop-color="#6775DB" stop-opacity="0.8"/>
<stop offset="0.515" stop-color="#C8B2DE" stop-opacity="0.9"/>
<stop offset="0.95" stop-color="#FFD4FF"/>
</linearGradient>
<linearGradient id="paint3_linear_957_1139" x1="5.5" y1="10.75" x2="5.5" y2="34.0001" gradientUnits="userSpaceOnUse">
<stop stop-color="#6775DB" stop-opacity="0.8"/>
<stop offset="0.28" stop-color="#C8B2DE" stop-opacity="0.9"/>
<stop offset="0.96" stop-color="#FFD4FF"/>
</linearGradient>
<linearGradient id="paint4_linear_957_1139" x1="4.57333" y1="3.2839" x2="5.49875" y2="7.26978" gradientUnits="userSpaceOnUse">
<stop stop-color="#6775DB" stop-opacity="0.8"/>
<stop offset="0.515" stop-color="#C8B2DE" stop-opacity="0.9"/>
<stop offset="0.95" stop-color="#FFD4FF"/>
</linearGradient>
<linearGradient id="paint5_linear_957_1139" x1="2.82433" y1="4.05168" x2="4.98641" y2="7.80163" gradientUnits="userSpaceOnUse">
<stop stop-color="#6775DB" stop-opacity="0.8"/>
<stop offset="0.28" stop-color="#C8B2DE" stop-opacity="0.9"/>
<stop offset="0.96" stop-color="#FFD4FF"/>
</linearGradient>
</defs>
</svg>
