<svg width="22" height="22" viewBox="0 0 22 22" fill="none" xmlns="http://www.w3.org/2000/svg">
<path fill-rule="evenodd" clip-rule="evenodd" d="M8.22217 10.1573C9.04442 10.7067 10.0111 10.9999 11 10.9999C12.3261 10.9999 13.5978 10.4732 14.5355 9.53548C15.4732 8.5978 16 7.32603 16 5.99995C16 5.01104 15.7068 4.04434 15.1574 3.2221C14.6079 2.39985 13.827 1.75899 12.9134 1.38055C11.9998 1.00211 10.9944 0.903096 10.0245 1.09602C9.05463 1.28895 8.16374 1.76515 7.46448 2.46442C6.76522 3.16368 6.289 4.05459 6.09607 5.0245C5.90315 5.9944 6.00218 6.99974 6.38062 7.91337C6.75906 8.827 7.39992 9.60789 8.22217 10.1573ZM9.33331 3.50554C9.82666 3.17589 10.4067 2.99995 11 2.99995C11.7957 2.99995 12.5587 3.31602 13.1213 3.87863C13.6839 4.44124 14 5.2043 14 5.99995C14 6.59329 13.824 7.17331 13.4944 7.66666C13.1647 8.16001 12.6963 8.54452 12.1481 8.77159C11.5999 8.99865 10.9967 9.05806 10.4147 8.94231C9.83279 8.82655 9.29822 8.54083 8.87866 8.12127C8.45911 7.70171 8.17338 7.16716 8.05762 6.58522C7.94186 6.00328 8.00127 5.40007 8.22833 4.8519C8.4554 4.30372 8.83997 3.83518 9.33331 3.50554ZM1 19.9999C1 20.5522 1.44772 20.9999 2 20.9999H20C20.5523 20.9999 21 20.5522 21 19.9999V18.9999C21 17.1434 20.2625 15.363 18.9498 14.0502C17.637 12.7374 15.8565 11.9999 14 11.9999H8C6.14348 11.9999 4.36299 12.7374 3.05023 14.0502C1.73748 15.363 1 17.1434 1 18.9999V19.9999ZM18.9003 18.0066C19.0101 18.5478 18.5523 18.9999 18 18.9999H4C3.44772 18.9999 2.98992 18.5478 3.09965 18.0066C3.29346 17.0506 3.76448 16.1644 4.46448 15.4644C5.40216 14.5267 6.67392 13.9999 8 13.9999H14C15.3261 13.9999 16.5978 14.5267 17.5355 15.4644C18.2355 16.1644 18.7065 17.0506 18.9003 18.0066Z" fill="url(#paint0_linear_967_1087)"/>
<path d="M14.5355 9.53548L14.182 9.18193L14.182 9.18193L14.5355 9.53548ZM15.1574 3.2221L14.7416 3.49988L14.7416 3.49988L15.1574 3.2221ZM12.9134 1.38055L12.7221 1.84249L12.7221 1.84249L12.9134 1.38055ZM7.46448 2.46442L7.11093 2.11086L7.11093 2.11086L7.46448 2.46442ZM6.09607 5.0245L5.60568 4.92695L5.60568 4.92695L6.09607 5.0245ZM6.38062 7.91337L5.91868 8.10471L5.91868 8.10471L6.38062 7.91337ZM9.33331 3.50554L9.05553 3.0898L9.05553 3.0898L9.33331 3.50554ZM13.1213 3.87863L12.7678 4.23218L12.7678 4.23218L13.1213 3.87863ZM13.4944 7.66666L13.0787 7.38887L13.0787 7.38887L13.4944 7.66666ZM12.1481 8.77159L11.9567 8.30965L11.9567 8.30965L12.1481 8.77159ZM8.87866 8.12127L8.52511 8.47482L8.52511 8.47482L8.87866 8.12127ZM8.05762 6.58522L7.56723 6.68276L7.56723 6.68276L8.05762 6.58522ZM8.22833 4.8519L7.76639 4.66055L7.76639 4.66056L8.22833 4.8519ZM4.46448 15.4644L4.11092 15.1109L4.11092 15.1109L4.46448 15.4644ZM17.5355 15.4644L17.8891 15.1109L17.8891 15.1109L17.5355 15.4644ZM18.9003 18.0066L19.3904 17.9072L18.9003 18.0066ZM3.09965 18.0066L3.58969 18.1059L3.09965 18.0066ZM11 10.4999C10.11 10.4999 9.23998 10.236 8.49996 9.74156L7.94438 10.573C8.84885 11.1774 9.9122 11.4999 11 11.4999V10.4999ZM14.182 9.18193C13.3381 10.0258 12.1935 10.4999 11 10.4999V11.4999C12.4587 11.4999 13.8576 10.9205 14.8891 9.88904L14.182 9.18193ZM15.5 5.99995C15.5 7.19342 15.0259 8.33801 14.182 9.18193L14.8891 9.88904C15.9205 8.85759 16.5 7.45864 16.5 5.99995H15.5ZM14.7416 3.49988C15.2361 4.2399 15.5 5.10993 15.5 5.99995H16.5C16.5 4.91215 16.1774 3.84878 15.5731 2.94431L14.7416 3.49988ZM12.7221 1.84249C13.5443 2.18309 14.2472 2.75987 14.7416 3.49988L15.5731 2.94431C14.9687 2.03984 14.1097 1.33489 13.1047 0.918609L12.7221 1.84249ZM10.1221 1.58641C10.995 1.41278 11.8998 1.50189 12.7221 1.84249L13.1047 0.918609C12.0997 0.502327 10.9939 0.393411 9.92699 0.60563L10.1221 1.58641ZM7.81803 2.81797C8.44737 2.18863 9.24917 1.76005 10.1221 1.58641L9.92699 0.60563C8.86009 0.817849 7.88011 1.34168 7.11093 2.11086L7.81803 2.81797ZM6.58646 5.12204C6.7601 4.24913 7.18869 3.44731 7.81803 2.81797L7.11093 2.11086C6.34174 2.88005 5.8179 3.86005 5.60568 4.92695L6.58646 5.12204ZM6.84256 7.72203C6.50196 6.89975 6.41283 5.99495 6.58646 5.12204L5.60568 4.92695C5.39346 5.99385 5.5024 7.09972 5.91868 8.10471L6.84256 7.72203ZM8.49996 9.74156C7.75993 9.2471 7.18315 8.54429 6.84256 7.72202L5.91868 8.10471C6.33496 9.1097 7.03992 9.96869 7.94438 10.573L8.49996 9.74156ZM11 2.49995C10.3078 2.49995 9.6311 2.70522 9.05553 3.0898L9.6111 3.92127C10.0222 3.64657 10.5056 3.49995 11 3.49995V2.49995ZM13.4749 3.52507C12.8185 2.86869 11.9283 2.49995 11 2.49995V3.49995C11.663 3.49995 12.2989 3.76334 12.7678 4.23218L13.4749 3.52507ZM14.5 5.99995C14.5 5.0717 14.1313 4.18146 13.4749 3.52507L12.7678 4.23218C13.2366 4.70101 13.5 5.3369 13.5 5.99995H14.5ZM13.9101 7.94444C14.2947 7.36888 14.5 6.6922 14.5 5.99995H13.5C13.5 6.49439 13.3534 6.97774 13.0787 7.38887L13.9101 7.94444ZM12.3394 9.23353C12.979 8.96861 13.5255 8.52 13.9101 7.94444L13.0787 7.38887C12.8039 7.80001 12.4135 8.12043 11.9567 8.30965L12.3394 9.23353ZM10.3172 9.4327C10.9961 9.56775 11.6999 9.49843 12.3394 9.23353L11.9567 8.30965C11.4999 8.49887 10.9972 8.54838 10.5123 8.45191L10.3172 9.4327ZM8.52511 8.47482C9.0146 8.96431 9.63826 9.29765 10.3172 9.4327L10.5123 8.45191C10.0273 8.35545 9.58185 8.11734 9.23222 7.76771L8.52511 8.47482ZM7.56723 6.68276C7.70228 7.3617 8.03563 7.98534 8.52511 8.47482L9.23222 7.76771C8.88258 7.41808 8.64447 6.97262 8.54801 6.48767L7.56723 6.68276ZM7.76639 4.66056C7.50149 5.3001 7.43218 6.00383 7.56723 6.68276L8.54801 6.48767C8.45155 6.00272 8.50106 5.50005 8.69027 5.04324L7.76639 4.66056ZM9.05553 3.0898C8.47998 3.47437 8.03131 4.02099 7.76639 4.66055L8.69027 5.04324C8.87948 4.58645 9.19996 4.19599 9.6111 3.92127L9.05553 3.0898ZM20 20.4999H2V21.4999H20V20.4999ZM20.5 18.9999V19.9999H21.5V18.9999H20.5ZM18.5962 14.4038C19.8152 15.6227 20.5 17.276 20.5 18.9999H21.5C21.5 17.0108 20.7098 15.1032 19.3033 13.6966L18.5962 14.4038ZM14 12.4999C15.7239 12.4999 17.3772 13.1848 18.5962 14.4038L19.3033 13.6966C17.8968 12.2901 15.9891 11.4999 14 11.4999V12.4999ZM8 12.4999H14V11.4999H8V12.4999ZM3.40379 14.4038C4.62277 13.1848 6.27609 12.4999 8 12.4999V11.4999C6.01088 11.4999 4.1032 12.2901 2.69668 13.6966L3.40379 14.4038ZM1.5 18.9999C1.5 17.276 2.1848 15.6227 3.40379 14.4038L2.69668 13.6966C1.29015 15.1032 0.5 17.0108 0.5 18.9999H1.5ZM1.5 19.9999V18.9999H0.5V19.9999H1.5ZM4 19.4999H18V18.4999H4V19.4999ZM4.11092 15.1109C3.34091 15.8809 2.82281 16.8557 2.60962 17.9072L3.58969 18.1059C3.76412 17.2455 4.18805 16.448 4.81803 15.818L4.11092 15.1109ZM8 13.4999C6.54131 13.4999 5.14237 14.0794 4.11092 15.1109L4.81803 15.818C5.66195 14.9741 6.80653 14.4999 8 14.4999V13.4999ZM14 13.4999H8V14.4999H14V13.4999ZM17.8891 15.1109C16.8576 14.0794 15.4587 13.4999 14 13.4999V14.4999C15.1935 14.4999 16.3381 14.9741 17.182 15.818L17.8891 15.1109ZM19.3904 17.9072C19.1772 16.8557 18.6591 15.8809 17.8891 15.1109L17.182 15.818C17.812 16.448 18.2359 17.2455 18.4103 18.1059L19.3904 17.9072ZM18 19.4999C18.7938 19.4999 19.5769 18.8273 19.3904 17.9072L18.4103 18.1059C18.4302 18.2041 18.4026 18.2909 18.334 18.3639C18.2608 18.4418 18.1411 18.4999 18 18.4999V19.4999ZM4 18.4999C3.85888 18.4999 3.7392 18.4418 3.66596 18.3639C3.59742 18.2909 3.56977 18.2041 3.58969 18.1059L2.60962 17.9072C2.4231 18.8273 3.20617 19.4999 4 19.4999V18.4999ZM2 20.4999C1.72386 20.4999 1.5 20.2761 1.5 19.9999H0.5C0.5 20.8284 1.17157 21.4999 2 21.4999V20.4999ZM20 21.4999C20.8284 21.4999 21.5 20.8284 21.5 19.9999H20.5C20.5 20.2761 20.2761 20.4999 20 20.4999V21.4999Z" fill="url(#paint1_linear_967_1087)"/>
<defs>
<linearGradient id="paint0_linear_967_1087" x1="19.3468" y1="1.96315" x2="11.2218" y2="23.8089" gradientUnits="userSpaceOnUse">
<stop stop-color="#6775DB" stop-opacity="0.8"/>
<stop offset="0.515" stop-color="#C8B2DE" stop-opacity="0.9"/>
<stop offset="0.95" stop-color="#FFD4FF"/>
</linearGradient>
<linearGradient id="paint1_linear_967_1087" x1="11" y1="1" x2="11" y2="20.9999" gradientUnits="userSpaceOnUse">
<stop stop-color="#6775DB" stop-opacity="0.8"/>
<stop offset="0.28" stop-color="#C8B2DE" stop-opacity="0.9"/>
<stop offset="0.96" stop-color="#FFD4FF"/>
</linearGradient>
</defs>
</svg>
